<?xml version="1.0" encoding="utf-8"?>
<!-- Generator: Adobe Illustrator 18.1.1, SVG Export Plug-In . SVG Version: 6.00 Build 0)  -->
<svg version="1.1" id="Capa_1" xmlns="http://www.w3.org/2000/svg" xmlns:xlink="http://www.w3.org/1999/xlink" x="0px" y="0px"
	 viewBox="40 40 80 80" enable-background="new 40 40 80 80" xml:space="preserve">
<g>
	<path fill="#C2342C" d="M120,80c0,22.1-17.9,40-40,40s-40-17.9-40-40s17.9-40,40-40S120,57.9,120,80z"/>
	<g>
		<path fill="#FFFFFF" d="M60,80.8c0.5-2.1,1.2-4.1,2-6c0.9-2,1.8-3.8,3-5.5c1.2-1.7,2.4-3.3,3.8-4.7c1.5-1.4,3-2.6,4.8-3.6
			s3.6-1.8,5.7-2.3c2-0.6,4.2-0.8,6.5-0.8c1.2,0,2.3,0.1,3.6,0.3c1.2,0.2,2.3,0.5,3.4,0.8s2.1,0.8,3,1.3c1,0.5,1.8,1.2,2.4,1.9
			c0.7,0.8,1.2,1.5,1.6,2.4c0.4,0.9,0.6,2,0.6,3.1c0,0.8-0.1,1.6-0.3,2.5c-0.4,1.5-0.9,2.9-1.6,4.1S97,76.6,96,77.6
			c-0.9,1.1-2,2-3.1,2.9c-1.2,1-2.4,1.9-3.7,2.9c-0.3,0.3-0.8,0.5-1.2,0.8c-0.4,0.3-0.8,0.5-1.3,0.8c-0.4,0.2-0.8,0.4-1.3,0.5
			c-0.5,0.2-0.8,0.2-1.3,0.2s-1,0-1.3-0.2c-0.4-0.1-0.7-0.3-0.9-0.5c-0.3-0.2-0.4-0.5-0.6-0.8s-0.4-0.7-0.6-1l0,0
			c-0.6,0.3-1.2,0.5-1.7,0.8s-1,0.5-1.6,0.8c-0.6,0.2-1.1,0.4-1.6,0.6s-1.1,0.2-1.7,0.2c-0.8,0-1.5-0.1-2.1-0.4s-1.2-0.6-1.6-1.1
			c-0.4-0.4-0.8-0.9-1-1.6c-0.3-0.6-0.3-1.3-0.3-1.9c0-0.9,0.2-1.9,0.7-2.9c0.4-1,1-2,1.7-3s1.5-1.9,2.3-2.8
			c0.9-0.9,1.7-1.8,2.6-2.6c0.3-0.3,0.8-0.8,1.4-1.3s1.3-1,2-1.4s1.5-0.8,2.3-1.2c0.8-0.4,1.5-0.5,2.2-0.5c0.3,0,0.5,0,0.8,0.1
			c0.2,0.1,0.4,0.3,0.5,0.5c0.2,0.2,0.3,0.3,0.4,0.6c0.1,0.2,0.3,0.4,0.3,0.7c0.1,0.3,0.3,0.6,0.5,0.8c0.2,0.3,0.3,0.5,0.5,0.8
			s0.3,0.5,0.5,0.8c0.1,0.3,0.2,0.6,0.2,0.9c0,0.5-0.1,1-0.3,1.5c-0.2,0.5-0.5,1.1-0.8,1.6c-0.2,0.3-0.4,0.7-0.5,1
			c-0.2,0.3-0.3,0.6-0.3,0.9c-0.1,0.4-0.3,0.7-0.3,1.2c-0.1,0.4-0.3,1-0.5,1.7c0,0.3-0.1,0.6-0.2,0.9s-0.2,0.7-0.2,1
			c-0.1,0.3-0.1,0.6-0.2,0.8c0,0.3,0,0.5,0,0.7v0.1c0.5,0,1-0.2,1.6-0.5c0.7-0.3,1.3-0.8,2-1.3s1.4-1,2.2-1.7c0.7-0.6,1.4-1.2,2-1.8
			c0.3-0.3,0.8-0.7,1.2-1.2c0.4-0.5,0.9-1.1,1.3-1.6s0.8-1.2,1.1-1.7c0.3-0.5,0.6-1.1,0.7-1.5c0.1-0.2,0.1-0.5,0.2-0.7
			c0-0.3,0-0.4,0-0.7c0-0.8-0.2-1.6-0.5-2.2c-0.4-0.7-0.9-1.3-1.5-1.8s-1.3-1-2-1.4c-0.8-0.4-1.6-0.7-2.4-0.9
			c-0.8-0.3-1.6-0.5-2.4-0.6s-1.6-0.2-2.3-0.2c-2.2,0-4.2,0.3-6,0.7c-1.8,0.5-3.4,1.2-4.9,2.1c-1.5,0.9-2.8,1.9-4,3.1
			c-1.1,1.3-2.2,2.6-3.1,4.1s-1.7,3.1-2.3,4.8c-0.7,1.7-1.2,3.5-1.7,5.3c-0.2,0.8-0.3,1.6-0.4,2.3C63,85,63,85.7,63,86.4
			c0,1.3,0.2,2.6,0.5,3.7c0.4,1.1,0.9,2,1.6,2.8c0.8,0.8,1.7,1.4,2.9,1.9c1.1,0.4,2.5,0.6,4,0.6s2.8-0.2,4.3-0.5s2.9-0.8,4.3-1.5
			s2.8-1.4,4.1-2.3c1.3-0.9,2.6-1.9,3.8-2.9c0.2-0.1,0.3-0.3,0.4-0.5s0.2-0.5,0.3-0.8c0.1-0.3,0.3-0.5,0.5-0.7s0.5-0.3,0.8-0.3
			s0.5,0.1,0.8,0.2c0.2,0.1,0.4,0.3,0.5,0.4c0.2,0.2,0.3,0.4,0.4,0.7c0.1,0.3,0.1,0.5,0.1,0.8s0,0.7-0.2,1c-0.2,0.5-0.3,0.8-0.5,1.2
			c-1.2,1.3-2.5,2.4-4.1,3.5s-3.3,2-5,2.9c-1.8,0.9-3.6,1.5-5.4,2s-3.5,0.8-5.1,0.8c-2.1,0-4-0.3-5.5-1c-1.6-0.6-2.9-1.5-3.9-2.7
			s-1.8-2.5-2.3-4.1c-0.5-1.5-0.8-3.3-0.8-5.1C59.3,84.6,59.5,82.8,60,80.8z M74.5,81.7c0.6,0,1.3-0.1,1.9-0.3
			c0.7-0.2,1.3-0.5,2-0.8c0.6-0.3,1.1-0.7,1.5-1c0.5-0.3,0.7-0.7,0.8-1l0.2-0.9c0.2-0.5,0.3-1,0.5-1.6c0.1-0.6,0.3-1.1,0.5-1.6
			c0.1-0.3,0.2-0.6,0.3-1c0.2-0.4,0.3-0.8,0.4-1.2c0.1-0.4,0.2-0.8,0.3-1.1s0.2-0.7,0.2-1c0-0.1-0.1-0.3-0.1-0.3s-0.2-0.2-0.3-0.2
			c-0.3,0-0.8,0.2-1.4,0.6s-1.3,0.8-2,1.4c-0.8,0.6-1.5,1.3-2.3,2s-1.5,1.5-2.1,2.3s-1.1,1.6-1.5,2.3s-0.6,1.4-0.6,2
			c0,0.2,0.1,0.4,0.2,0.5s0.3,0.3,0.4,0.3s0.4,0.2,0.6,0.2C74,81.7,74.3,81.7,74.5,81.7z"/>
	</g>
</g>
</svg>
